<svg id="Слой_1" data-name="Слой 1" xmlns="http://www.w3.org/2000/svg" viewBox="0 0 348.13 869.94"><defs><style>.cls-1,.cls-11{fill:#32324c;}.cls-1{isolation:isolate;opacity:0.1;}.cls-2{fill:#2c2c2c;}.cls-3{fill:#de9d01;}.cls-4{fill:#fff;}.cls-5{fill:#bf8005;}.cls-6{fill:#009762;}.cls-7{fill:#e2e2e2;}.cls-8{fill:#ffaf82;}.cls-9{fill:#f88968;}.cls-10{fill:#ffa378;}.cls-12{fill:#920e08;}.cls-13{fill:#f85c66;}</style></defs><ellipse class="cls-1" cx="167.21" cy="850.15" rx="130.41" ry="19.79"/><path class="cls-1" d="M347.37,545.65C336.37,708.22,131.22,774.1,30,646.44,9.29,620.37,4.34,557.5,9.7,524.34,31.29,390.68,99.84,377,48.7,292.48s-55.93-238,85.35-236.84,50.21,227,147.53,290.18C326.06,374.7,353.11,461,347.37,545.65Z" transform="translate(-0.01 72.65)"/><path class="cls-1" d="M293.82,309.27a21.57,21.57,0,0,1-23.76-6.83c-9.2-11.14-23.87-33.63-19.5-59.81,6.24-37.39,53.62-7.54,57.35,34.49C309.77,298.18,302,306.33,293.82,309.27Z" transform="translate(-0.01 72.65)"/><path class="cls-1" d="M243.36,210.94a11.25,11.25,0,0,1-7.62-10.41c-.24-7.53.9-21.49,11.06-30.89,14.51-13.43,24.52,14,12.64,32.54C253.49,211.44,247.68,212.35,243.36,210.94Z" transform="translate(-0.01 72.65)"/><path class="cls-1" d="M10.6,393.66a11.25,11.25,0,0,1-9.38-8.86c-1.59-7.36-3-21.3,5.28-32.38,11.84-15.84,26.66,9.34,18.33,29.71C20.66,392.32,15.11,394.26,10.6,393.66Z" transform="translate(-0.01 72.65)"/><path class="cls-2" d="M103,418.75c-.08-27.44,6.71-45.86,6.71-45.86,44.08-2.84,113.4,0,113.4,0,.09.27.19.54.28.8,0,0,7.13,25.05,3,45.06C183.43,445.31,142.11,443.56,103,418.75Z" transform="translate(-0.01 72.65)"/><path class="cls-2" d="M227.14,413.56s9.48,129.15,8.37,161.39L244,744.23l-28.16-1.67c-6.11-77.56-16.57-116.47-16.27-166.5L175.47,425.48S198.91,414.12,227.14,413.56Z" transform="translate(-0.01 72.65)"/><path class="cls-3" d="M214.83,741.18c.8-11.13,10.74-17.19,20.88-14.41,9.92,2.72,11.11,19.26,11.11,19.26a52,52,0,0,1,14.78,29.82c.06.42.13.85.17,1.29a6.69,6.69,0,0,1-5.56,7.34c-17.58,2.91-34.66,3.14-51.16.13a6.65,6.65,0,0,1-5.43-7.38v-.4c1.11-8.43,3.4-23.89,13.71-29.63Z" transform="translate(-0.01 72.65)"/><path class="cls-4" d="M218.76,754l-.89-2c.61-.27,15.22-6.53,25.86.41l-1.22,1.79C232.87,747.92,218.9,753.92,218.76,754Z" transform="translate(-0.01 72.65)"/><path class="cls-4" d="M220.6,753.69a2.5,2.5,0,1,1-2-2.88h0A2.51,2.51,0,0,1,220.6,753.69Z" transform="translate(-0.01 72.65)"/><path class="cls-4" d="M245.68,753.09a2.5,2.5,0,1,1,0-.06Z" transform="translate(-0.01 72.65)"/><path class="cls-4" d="M219,747.71l-.89-2c.62-.27,15.22-6.53,25.86.42L242.77,748C233.12,741.66,219.15,747.65,219,747.71Z" transform="translate(-0.01 72.65)"/><path class="cls-4" d="M220.84,747.43a2.49,2.49,0,1,1-2-2.88h0A2.49,2.49,0,0,1,220.84,747.43Z" transform="translate(-0.01 72.65)"/><path class="cls-4" d="M245.94,746.83a2.5,2.5,0,1,1-2.06-2.88A2.5,2.5,0,0,1,245.94,746.83Z" transform="translate(-0.01 72.65)"/><path class="cls-4" d="M218.76,760.23l-.89-2c.61-.27,15.22-6.53,25.86.42l-1.22,1.86C232.87,754.18,218.9,760.18,218.76,760.23Z" transform="translate(-0.01 72.65)"/><path class="cls-4" d="M220.6,759.94a2.5,2.5,0,1,1-2-2.88h0A2.49,2.49,0,0,1,220.6,759.94Z" transform="translate(-0.01 72.65)"/><path class="cls-4" d="M245.68,759.34a2.49,2.49,0,1,1-2.05-2.87,2.48,2.48,0,0,1,2.05,2.87Z" transform="translate(-0.01 72.65)"/><path class="cls-4" d="M237.15,733.92s-7.51-2.59-13.9.56a7.28,7.28,0,0,0,0,5.12s8.63-1.39,14.09-.33C237.33,739.27,238.36,736.18,237.15,733.92Z" transform="translate(-0.01 72.65)"/><path class="cls-5" d="M256.19,784.48c-17.58,2.91-34.66,3.14-51.16.13a6.65,6.65,0,0,1-5.43-7.38v-.4a111.57,111.57,0,0,0,61.93-1c.06.42.13.85.17,1.29A6.68,6.68,0,0,1,256.19,784.48Z" transform="translate(-0.01 72.65)"/><path class="cls-2" d="M103.12,413.56S93.6,542.71,94.75,575l-8.5,169.28,28.15-1.67C120.52,665,131,626.09,130.67,576.06l24.12-150.58S131.35,414.12,103.12,413.56Z" transform="translate(-0.01 72.65)"/><path class="cls-3" d="M115.43,741.18c-.8-11.13-10.74-17.19-20.88-14.41C84.63,729.49,83.44,746,83.44,746a52,52,0,0,0-14.76,29.84c-.06.42-.13.85-.17,1.29a6.69,6.69,0,0,0,5.56,7.34c17.58,2.91,34.66,3.14,51.16.13a6.65,6.65,0,0,0,5.43-7.38,1.1,1.1,0,0,0,0-.4c-1.11-8.43-3.4-23.89-13.72-29.63Z" transform="translate(-0.01 72.65)"/><path class="cls-4" d="M111.5,754l.89-2c-.62-.27-15.22-6.53-25.86.41l1.22,1.86C97.39,747.92,111.36,753.92,111.5,754Z" transform="translate(-0.01 72.65)"/><path class="cls-4" d="M109.67,753.69a2.5,2.5,0,1,0,2.06-2.87h0A2.51,2.51,0,0,0,109.67,753.69Z" transform="translate(-0.01 72.65)"/><path class="cls-4" d="M84.6,753.09a2.49,2.49,0,1,0,2-2.88h0A2.49,2.49,0,0,0,84.6,753.09Z" transform="translate(-0.01 72.65)"/><path class="cls-4" d="M111.25,747.71l.89-2c-.62-.27-15.22-6.53-25.86.42L87.49,748C97.14,741.66,111.11,747.65,111.25,747.71Z" transform="translate(-0.01 72.65)"/><path class="cls-4" d="M109.42,747.43a2.49,2.49,0,1,0,2-2.88,2.49,2.49,0,0,0-2,2.88Z" transform="translate(-0.01 72.65)"/><path class="cls-4" d="M84.32,746.83a2.5,2.5,0,1,0,2-2.89h0A2.51,2.51,0,0,0,84.32,746.83Z" transform="translate(-0.01 72.65)"/><path class="cls-4" d="M111.5,760.23l.89-2c-.62-.27-15.22-6.53-25.86.42l1.22,1.86C97.39,754.18,111.36,760.18,111.5,760.23Z" transform="translate(-0.01 72.65)"/><path class="cls-4" d="M109.67,759.94a2.5,2.5,0,1,0,2.06-2.87h0a2.48,2.48,0,0,0-2,2.86Z" transform="translate(-0.01 72.65)"/><path class="cls-4" d="M84.6,759.34a2.49,2.49,0,1,0,2-2.88h0A2.49,2.49,0,0,0,84.6,759.34Z" transform="translate(-0.01 72.65)"/><path class="cls-4" d="M93.11,733.92s7.51-2.59,13.9.56a7.17,7.17,0,0,1,0,5.12s-8.62-1.39-14.08-.33C92.93,739.27,91.9,736.18,93.11,733.92Z" transform="translate(-0.01 72.65)"/><path class="cls-5" d="M74.07,784.48c17.58,2.91,34.66,3.14,51.16.13a6.65,6.65,0,0,0,5.43-7.38,1.1,1.1,0,0,0,0-.4,111.57,111.57,0,0,1-61.93-1c-.06.42-.13.85-.17,1.29A6.69,6.69,0,0,0,74.07,784.48Z" transform="translate(-0.01 72.65)"/><path class="cls-6" d="M228.6,383.87c-12.53,6.56-24.17,11.4-35.82,14.31A106,106,0,0,1,166,401.43a102.13,102.13,0,0,1-23.51-2.53c-12.47-2.8-24.75-7.89-38.38-15l5.16-107L108.71,152l31.7-8.51L150,141A61.29,61.29,0,0,1,182,141l10.74,2.88,30.5,8.17-.56,124.86Z" transform="translate(-0.01 72.65)"/><path class="cls-4" d="M192.77,143.8V398.18A106,106,0,0,1,166,401.43a102.13,102.13,0,0,1-23.51-2.53l0-6.33-.06-6.63-.13-15.4v-6.63l-.13-15.38-.06-6.63-.11-15.38-.06-6.61-.13-15.38-.05-6.59-.12-15.4-.07-6.61-.13-15.4v-6.59l-.13-15.42V232l-.13-15.44-.06-6.55-.13-15.44V188l-.33-15.42,0-6.54-.12-15.47-.07-6.52v-.56l9.54-2.54a61.29,61.29,0,0,1,32.09,0l10.63,2.86Z" transform="translate(-0.01 72.65)"/><path class="cls-7" d="M192.77,150.58V157a155,155,0,0,1-26.25,2.14,184.59,184.59,0,0,1-26.05-1.87l-.07-6.52c12.13,1.75,31.87,3.36,52.26-.23Z" transform="translate(-0.01 72.65)"/><path class="cls-7" d="M192.77,169v6.51a151.54,151.54,0,0,1-25.87,2.13,182.32,182.32,0,0,1-26.3-1.94l0-6.55C152.74,170.94,172.42,172.61,192.77,169Z" transform="translate(-0.01 72.65)"/><path class="cls-7" d="M192.77,187.89v6.54a147.2,147.2,0,0,1-25.5,2.14,173.59,173.59,0,0,1-26.46-2V188C152.89,189.88,172.47,191.63,192.77,187.89Z" transform="translate(-0.01 72.65)"/><path class="cls-7" d="M192.77,210v6.55a144.41,144.41,0,0,1-25.17,2.14A169.08,169.08,0,0,1,141,216.51L141,210C153.07,211.93,172.53,213.75,192.77,210Z" transform="translate(-0.01 72.65)"/><path class="cls-7" d="M192.77,232.06v6.52a139.28,139.28,0,0,1-24.88,2.16,163.85,163.85,0,0,1-26.72-2.22V232C153.24,234,172.6,235.87,192.77,232.06Z" transform="translate(-0.01 72.65)"/><path class="cls-7" d="M192.77,254.11v6.55a135.08,135.08,0,0,1-24.58,2.16,163.2,163.2,0,0,1-26.85-2.29v-6.59C153.39,256.08,172.6,258,192.77,254.11Z" transform="translate(-0.01 72.65)"/><path class="cls-7" d="M192.77,276.18v6.54a132.21,132.21,0,0,1-24.32,2.19,156.6,156.6,0,0,1-26.91-2.38l-.07-6.61C153.6,278.18,172.68,280.12,192.77,276.18Z" transform="translate(-0.01 72.65)"/><path class="cls-7" d="M192.77,298.26v6.55A128.77,128.77,0,0,1,168.7,307a150,150,0,0,1-27-2.48l0-6.59C153.73,300.18,172.74,302.24,192.77,298.26Z" transform="translate(-0.01 72.65)"/><path class="cls-7" d="M192.77,320.34v6.56a127.2,127.2,0,0,1-23.85,2.19,146.47,146.47,0,0,1-27-2.57l-.06-6.61C153.88,322.28,172.81,324.36,192.77,320.34Z" transform="translate(-0.01 72.65)"/><path class="cls-7" d="M192.77,342.41V349a124.21,124.21,0,0,1-23.64,2.22,143,143,0,0,1-27.06-2.65L142,341.9C154.05,344.34,172.85,346.48,192.77,342.41Z" transform="translate(-0.01 72.65)"/><path class="cls-7" d="M192.77,364.47v6.58a121.25,121.25,0,0,1-23.43,2.23,137,137,0,0,1-27.1-2.74v-6.63C154.22,366.41,172.92,368.59,192.77,364.47Z" transform="translate(-0.01 72.65)"/><path class="cls-7" d="M192.77,386.54v6.64a119.91,119.91,0,0,1-23.23,2.22,135.63,135.63,0,0,1-27.11-2.78l-.06-6.63C154.37,388.49,173,390.71,192.77,386.54Z" transform="translate(-0.01 72.65)"/><path class="cls-8" d="M68.6,383.76a129.85,129.85,0,0,0,5.17,14.05c2.72,5.91.85,10.48,2.48,15.82s-4.76,4.95-6-.65-.71-8.26-1.87-8.44-4.51,13.47-5,17.39.32,13.74-1.15,15.27-5-4-3.88-14.21.3-10,.3-10-1,4-2,8.23a46.32,46.32,0,0,0-.83,12.38c.19,2.91-2.78,4.36-3.66,2.8s-2.27-11.73-1.09-15.71,2.62-10.79,2.62-10.79-3.91,9.15-4.58,11.5.45,11.36-1.61,13c-.85.67-3.58-.23-3.11-13.06a70.72,70.72,0,0,1,2.29-10.16A22.59,22.59,0,0,0,43.56,418a63,63,0,0,0-1.7,10.49c-.3,3.47-3.31,3-3.31-3.11s1-12.86,2.75-16.12,4.22-22.3,9.31-29.29Z" transform="translate(-0.01 72.65)"/><path class="cls-6" d="M126.16,179.73S111.51,247.54,99.24,271c0,0-6.75,33-30.2,114,0,0-12.26,4.87-19.4-4.43,0,0,11.33-89.05,18.16-117.53,0,0,30.64-98.38,40.92-111.06C108.72,152,124.54,158.4,126.16,179.73Z" transform="translate(-0.01 72.65)"/><path class="cls-8" d="M263.39-15.41c2.18,2.48,15.12,3.35,15.12,3.35,4.64-4.5,5.8-11.94,7.37-18.57h0c.29-1.18.52-2.34.71-3.46h0c1-5.8.84-10.53-.27-11.53-2.49-2.24-4.88.74-4.88.74s.67-6.58-1.85-7.6c-2.27-.91-5.28,4.6-5.28,4.6s1-25.76-1.85-24.73c-3.52,1.27-5.41,23.31-5.47,24-1.92-10.27-2.95-24.16-6-18.76s-.13,24.23-.13,24.23A5.61,5.61,0,0,0,256.65-40c-1.19,2.77,1.49,9.57,1.49,9.57C259.8-24.94,263.39-15.41,263.39-15.41Z" transform="translate(-0.01 72.65)"/><path class="cls-9" d="M271.88-32.25s5.17,4.33,1.39,13.06c0,0,5.91-6.61-1.12-15.09A1.68,1.68,0,0,0,271.88-32.25Z" transform="translate(-0.01 72.65)"/><path class="cls-9" d="M269.71-39.68s4.21,4.76,0,7.22-10.35-.76-10.35-.76,3.37,4.37,8.53,3.23S274.86-35.69,269.71-39.68Z" transform="translate(-0.01 72.65)"/><path class="cls-9" d="M274.07-33.06c1.85,3.12,5.38-.35,5.38-.35s0,5.2,3.56,4.15a10.11,10.11,0,0,0,2.87-1.37h0c.29-1.18.52-2.34.71-3.46-.06.17-1.13,3.35-4,3.67s-2.11-5.6-2.08-5.84c-.09.13-2,2.9-4.72,2.64s-2.38-7.09-2.37-7.38C273.37-40.74,272.26-36.1,274.07-33.06Z" transform="translate(-0.01 72.65)"/><path class="cls-6" d="M259.78,38.16c1.72-26.93,3.61-53.51,3.61-53.51,7.07,1.95,12.87,1.54,18.72-2a347,347,0,0,1-.33,111c-8.29,30.71-59.07,98.63-59.07,98.63C202.57,188.92,205,160.22,205,160.22c26.34-40.5,51.56-77,52-77.59C257.25,78.11,258.32,61.11,259.78,38.16Z" transform="translate(-0.01 72.65)"/><path class="cls-8" d="M180.52,123.77l-.48,9.09-.61,11.41s-2.26,4.29-12.48,4.29-12.31-2.94-12.31-2.94l-.41-5.05-1.37-16.8Z" transform="translate(-0.01 72.65)"/><path class="cls-9" d="M180.52,123.77l-.48,9.09c-4.26,3.2-14.35,9.47-25.81,7.71l-1.37-16.8Z" transform="translate(-0.01 72.65)"/><path class="cls-10" d="M135.4,82.39s-7.83-7.66-14.08-2.66c-7.38,5.9.34,27.15,13.44,24.9Z" transform="translate(-0.01 72.65)"/><path class="cls-9" d="M130.83,99.34a1.28,1.28,0,0,1-1.24-1.19c-.84-10.45-7-12.27-7.23-12.34a1.31,1.31,0,0,1-.91-1.58,1.29,1.29,0,0,1,1.57-.92c.33.08,8.15,2.25,9.15,14.64A1.3,1.3,0,0,1,131,99.34Z" transform="translate(-0.01 72.65)"/><path class="cls-9" d="M123.51,94a1.29,1.29,0,0,1-.89-2.18,7.33,7.33,0,0,1,7-1.77,1.3,1.3,0,1,1-.64,2.51,4.72,4.72,0,0,0-4.47,1A1.24,1.24,0,0,1,123.51,94Z" transform="translate(-0.01 72.65)"/><path class="cls-10" d="M195.22,82.39s7.82-7.66,14.08-2.66c7.38,5.9-.34,27.15-13.44,24.9Z" transform="translate(-0.01 72.65)"/><path class="cls-9" d="M199.78,99.34A1.29,1.29,0,0,0,201,98.15c.84-10.45,7-12.27,7.22-12.34a1.29,1.29,0,0,0-.66-2.5c-.33.08-8.15,2.25-9.14,14.64a1.29,1.29,0,0,0,1.19,1.39Z" transform="translate(-0.01 72.65)"/><path class="cls-9" d="M207.11,94a1.26,1.26,0,0,0,.84-.35,1.3,1.3,0,0,0,.05-1.83,7.34,7.34,0,0,0-7-1.77,1.3,1.3,0,0,0,.65,2.51,4.69,4.69,0,0,1,4.46,1A1.28,1.28,0,0,0,207.11,94Z" transform="translate(-0.01 72.65)"/><path class="cls-8" d="M165.7,132.7c-27,0-35.39-32.12-37.88-55.64A37.11,37.11,0,0,1,164.16,36h2a37.13,37.13,0,0,1,36.45,40.33C200.51,100.18,192.73,132.7,165.7,132.7Z" transform="translate(-0.01 72.65)"/><path class="cls-11" d="M200.39,19.84c13.72,9.39,1.3,27.69,1.3,27.69s13.67,13.37-.4,44.85l-2.5-.51c1.6-10.08.64-22.35,0-24.28-1.9-5.76-12-8.82-11.48-15.05,0,0-31,9.68-47.72.18,0,0-1.32,8-5.91,13-3.84,4.21-1.65,18.86-1.16,25.2l-2.57.26c-1.53-6.46-5.25-18.09-5.65-21.52-.25-2.16-1.17-10.73-1.56-16.85a30.09,30.09,0,0,1,3-15.57A20.47,20.47,0,0,1,131.57,30C140.56,23.31,187.94,11.33,200.39,19.84Z" transform="translate(-0.01 72.65)"/><path class="cls-12" d="M182.86,102.3a16,16,0,0,1-31.64,3.44,16.8,16.8,0,0,1-.31-2.85s0-.09,0-.13l31.93-.59S182.86,102.25,182.86,102.3Z" transform="translate(-0.01 72.65)"/><path class="cls-4" d="M182.86,102.3a15.93,15.93,0,0,1-.2,2.86l-31.44.58a16.8,16.8,0,0,1-.31-2.85s0-.09,0-.13l31.93-.59S182.86,102.25,182.86,102.3Z" transform="translate(-0.01 72.65)"/><path class="cls-13" d="M178.82,113.21a16,16,0,0,1-23.47.43,17.54,17.54,0,0,1,23.47-.43Z" transform="translate(-0.01 72.65)"/><path class="cls-11" d="M143.92,85.1s.68-8.14,7.28-8.79c6.82-.68,8.55,6.69,8.55,6.69S151.3,71.75,143.92,85.1Z" transform="translate(-0.01 72.65)"/><path class="cls-11" d="M189.72,85.1S189,77,182.44,76.31c-6.82-.68-8.55,6.69-8.55,6.69S182.34,71.75,189.72,85.1Z" transform="translate(-0.01 72.65)"/><path class="cls-11" d="M141.49,75.28s.07-5.91,4-9.23a12.61,12.61,0,0,1,9-3.29A1.64,1.64,0,0,1,156,64.27h0a1.66,1.66,0,0,1-1.64,1.8C151.3,66.08,145,67.19,141.49,75.28Z" transform="translate(-0.01 72.65)"/><path class="cls-11" d="M191.23,74.78s-.31-5.9-4.37-9.06a12.67,12.67,0,0,0-9.11-2.93,1.65,1.65,0,0,0-1.48,1.58h0A1.65,1.65,0,0,0,178,66.09C181.06,66,187.35,66.84,191.23,74.78Z" transform="translate(-0.01 72.65)"/><path class="cls-9" d="M165.76,98.94a1.43,1.43,0,0,1-.61-2.63l4.07-2.52L166,92.62a1.43,1.43,0,0,1-.93-1.25l-.55-9.18a1.42,1.42,0,1,1,2.84-.17l.5,8.24L173,92.13a1.43,1.43,0,0,1,.25,2.55l-6.56,4A1.44,1.44,0,0,1,165.76,98.94Z" transform="translate(-0.01 72.65)"/><path class="cls-9" d="M167.05,122.09a14.45,14.45,0,0,1-7.86-2.07,1,1,0,0,1-.34-1.37,1,1,0,0,1,1.36-.34c6.63,4,13.08.18,13.35,0a1,1,0,0,1,1,1.71A16.54,16.54,0,0,1,167.05,122.09Z" transform="translate(-0.01 72.65)"/></svg>